<svg width="237" height="66" xmlns="http://www.w3.org/2000/svg" xmlns:svg="http://www.w3.org/2000/svg">
 <g>
  <title>Layer 1</title>
  <g stroke="null" id="ETS_Logo">
   <g stroke="null" id="svg_1">
    <path stroke="null" id="svg_2" d="m75.7815,45.11045l-0.10682,0.08393c-7.73406,5.89516 -15.52306,9.47835 -25.26999,11.60872c-14.93095,3.26424 -28.83639,1.32004 -36.28966,-5.07262c-3.35428,-2.87052 -5.2298,-6.46743 -5.58385,-10.68851c-0.90343,-10.8579 7.23657,-22.08511 21.77837,-30.03435l0.14498,-0.08088l-0.16787,-0.41204l-0.14192,0.05952c-17.08422,6.87337 -29.07598,19.69378 -28.16187,31.88851c0.37083,4.978 2.60193,9.38831 6.44607,12.73343c7.9294,6.90541 21.97829,9.05258 37.57613,5.72577c12.56709,-2.67365 22.56887,-8.28649 29.95804,-15.32925l0.1404,-0.14345l-0.322,-0.33878z" fill="#003082"/>
    <path stroke="null" id="svg_3" d="m87.12316,15.63616c-2.96971,-6.61394 -9.48292,-11.11733 -18.34474,-12.65865c-14.31595,-2.51189 -31.50241,3.6488 -40.12006,13.6277l-0.1114,0.12819l0.26859,0.36931l0.13582,-0.10988c5.72119,-4.76588 14.19234,-8.38721 22.65433,-9.68436c12.57472,-1.91978 23.12283,1.23763 28.21071,8.44978c4.94748,7.00155 3.53893,20.5148 -2.94987,28.345l-0.11903,0.14955l0.32352,0.37846l0.13429,-0.11598c9.88428,-9.40815 14.641,-18.31727 9.91785,-28.87912z" fill="#892528"/>
    <path stroke="null" id="svg_4" d="m34.33834,34.689l-9.47835,0l-1.01635,5.44192l10.59847,0l-0.84238,4.46219l-15.90152,0l4.46067,-23.66153l15.23158,0l-0.87596,4.45914l-9.89801,0l-0.91258,4.84371l9.47835,0l-0.84391,4.45456z" fill="#003082"/>
    <path stroke="null" id="svg_5" d="m43.97234,25.4243l-5.80665,0l0.87748,-4.49119l20.1226,0c-1.20559,0.24875 -2.26925,0.98431 -3.27645,1.98998c-1.1476,1.14607 -1.35972,2.50274 -1.35972,2.50274l-5.29237,0l-3.58166,19.17034l-5.2649,0l3.58166,-19.17187z" fill="#003082"/>
    <path stroke="null" id="svg_6" d="m54.70816,38.80325c1.6161,0.94768 3.86245,1.71682 6.35298,1.71682c1.93046,0 3.86245,-0.80728 3.86245,-2.66755c0,-1.26358 -1.08961,-2.10749 -3.47636,-3.16199c-2.73927,-1.1888 -5.57927,-3.05212 -5.57927,-6.45523c0,-4.88186 4.52781,-7.72338 9.82629,-7.72338c3.23066,0 5.1245,0.70046 6.28431,1.29715l-1.71987,4.35232c-0.80728,-0.41967 -2.77285,-1.22542 -5.0192,-1.15675c-2.52715,0 -3.75715,1.15675 -3.75715,2.27993c0,1.47875 1.79007,2.31961 3.82735,3.26729c3.19251,1.40245 5.3,3.29934 5.3,6.4247c0,5.40377 -4.73841,8.03927 -10.24901,8.03927c-3.58166,-0.07172 -6.21258,-0.98431 -7.54788,-1.96404l1.89536,-4.24855z" fill="#003082"/>
    <g stroke="null" id="svg_7">
     <path stroke="null" id="svg_8" d="m85.86874,50.15865c-0.63484,0.63789 -1.40245,0.95684 -2.30282,0.95684c-0.90037,0 -1.66646,-0.31895 -2.29824,-0.95684c-0.62874,-0.63484 -0.9431,-1.40397 -0.9431,-2.3074c0,-0.89427 0.31742,-1.6573 0.95226,-2.29214c0.63179,-0.63179 1.39482,-0.94768 2.28909,-0.94768c0.90037,0 1.66798,0.31589 2.30282,0.94768s0.95226,1.39482 0.95226,2.29214c0,0.90037 -0.31742,1.66951 -0.95226,2.3074zm-4.27907,-4.28059c-0.54328,0.5448 -0.81491,1.20406 -0.81491,1.9793c0,0.77829 0.27011,1.44212 0.81034,1.99151c0.54328,0.55091 1.20406,0.8256 1.9793,0.8256s1.43602,-0.27469 1.9793,-0.8256c0.54328,-0.54785 0.81491,-1.21322 0.81491,-1.99151c0,-0.77524 -0.27164,-1.43297 -0.81491,-1.9793c-0.54633,-0.54785 -1.20559,-0.8256 -1.9793,-0.8256c-0.76913,0 -1.42839,0.27774 -1.97472,0.8256zm1.91368,0.18313c0.44256,0 0.76761,0.0412 0.97362,0.12819c0.36931,0.15261 0.55396,0.45324 0.55396,0.90343c0,0.31895 -0.11598,0.55396 -0.34947,0.70656c-0.12361,0.07783 -0.29453,0.13735 -0.51581,0.17244c0.27927,0.0412 0.48376,0.16024 0.61195,0.34947c0.12971,0.18771 0.19381,0.37236 0.19381,0.55091l0,0.26248c0,0.08393 0.00305,0.16939 0.00916,0.26553s0.01679,0.15566 0.03205,0.18465l0.02289,0.04426l-0.58906,0c-0.00305,-0.01221 -0.0061,-0.02442 -0.00916,-0.0351s-0.0061,-0.02442 -0.00763,-0.03815l-0.01373,-0.11598l0,-0.28079c0,-0.41356 -0.11293,-0.6852 -0.33726,-0.81644c-0.13277,-0.07783 -0.36625,-0.11598 -0.69893,-0.11598l-0.49597,0l0,1.40397l-0.62874,0l0,-3.56792l1.24832,0l0,-0.00153zm0.6791,0.56006c-0.15871,-0.08699 -0.41356,-0.13124 -0.7615,-0.13124l-0.53717,0l0,1.2941l0.56769,0c0.26706,0 0.46697,-0.02747 0.59974,-0.08088c0.2457,-0.09767 0.36931,-0.28385 0.36931,-0.55701c0,-0.26248 -0.07936,-0.43645 -0.23807,-0.52496z" fill="#003082"/>
    </g>
   </g>
  </g>
 </g>
</svg>